<svg xmlns="http://www.w3.org/2000/svg" width="336.327" height="314.08" viewBox="0 0 336.327 314.08"><path fill-rule="evenodd" clip-rule="evenodd" fill="#0095B1" d="M172.203 310.09c0-13.08-.028-25.139.008-37.198.042-13.393.125-26.786.237-40.179.025-3.003-.078-5.536-4.209-5.564-4.165-.027-4.291 2.634-4.303 5.559-.071 17.312-.14 34.626-.19 51.94-.024 8.281-.004 16.561-.004 26.276-22.53-8.14-43.409-15.684-65.26-23.579 1.773-1.967 2.833-3.282 4.034-4.453 18.246-17.784 36.521-35.538 54.759-53.33 3.468-3.383 3.099-6.454-1.173-7.496-1.495-.364-3.907 1.043-5.242 2.324-14.023 13.456-27.899 27.063-41.851 40.593-2.661 2.58-5.478 4.997-8.728 7.95 0-10.98-.081-21.167.023-31.351.104-10.121.495-20.239.465-30.356-.003-1.173-1.878-3.276-2.911-3.291-1.577-.025-3.629 1.038-4.629 2.308-.86 1.093-.669 3.118-.707 4.737-.447 19.096-.811 38.194-1.295 57.29-.093 3.689-.61 7.368-1.018 12.049-27.837-10.057-54.861-19.82-82.99-29.982 3.306-2.199 5.546-3.729 7.826-5.197 21.962-14.14 43.941-28.259 65.894-42.414 4.011-2.586 4.497-5.165.955-7.388-1.3-.816-4.3-.094-5.899.917-16.014 10.117-31.892 20.449-47.821 30.701-7.797 5.019-15.622 9.995-24.781 15.851 9.237-46.216 18.2-91.066 27.418-137.189 2.026 2.518 3.25 3.959 4.387 5.466 15.149 20.078 30.246 40.196 45.507 60.188 1.17 1.533 3.659 3.288 5.235 3.039 4.102-.645 4.685-3.384 1.858-7.147-14.613-19.456-29.275-38.875-43.914-58.313-1.067-1.418-2.076-2.88-3.753-5.213 2.462-.131 4.103-.312 5.741-.29 26.122.34 52.245.714 78.367 1.052 1.62.021 3.775.406 4.733-.444 1.233-1.094 2.014-3.271 2.002-4.975-.007-.982-1.814-2.369-3.078-2.816-1.466-.518-3.225-.225-4.857-.247-27.756-.376-55.513-.745-83.269-1.125-1.096-.015-2.19-.14-4.266-.281 26.143-31.003 51.748-61.371 78.117-92.643.897 2.536 1.543 4.076 1.992 5.671 7.069 25.144 14.114 50.293 21.161 75.443.783 2.792 1.299 5.337 5.525 3.916 4.55-1.53 2.898-4.367 2.154-7.041-6.872-24.666-13.81-49.313-20.713-73.971-.506-1.804-.898-3.639-1.668-6.79 51.861 16 102.515 31.627 154.652 47.712-11.912 4.531-22.372 8.54-32.854 12.49-26.125 9.847-52.267 19.642-78.369 29.546-2.147.814-5.819.827-4.292 4.949 1.372 3.704 3.787 4.127 7.384 2.757 34.311-13.067 68.671-26.005 103.022-38.968 1.658-.626 3.363-1.127 5.968-1.994-.651 2.316-1.031 3.962-1.575 5.552-7.255 21.158-14.575 42.294-21.729 63.486-.603 1.786-.936 4.519-.004 5.802 2.605 3.59 5.75 2.72 7.293-1.75 7.829-22.671 15.609-45.359 23.417-68.038.511-1.482 1.119-2.932 2.133-5.57 15.544 30.247 30.571 59.485 46.062 89.631-3.433-.253-5.936-.542-8.443-.607-18.279-.471-36.56-.888-54.839-1.349-2.61-.066-4.876-.071-5.159 3.527-.293 3.732 1.854 4.377 4.758 4.542 2.117.12 4.225.458 6.342.511 16.644.411 33.29.753 49.933 1.186 2.015.052 4.019.513 7.253.948-21.271 33.089-41.926 65.222-62.583 97.355l-1.159-.265c-.893-6.041-1.858-12.071-2.668-18.123-2.98-22.274-5.924-44.553-8.83-66.837-.293-2.248-.396-4.512-3.552-3.879-2.691.539-5.026 1.42-4.511 5.096 1.339 9.533 2.494 19.093 3.741 28.639 2.367 18.12 4.749 36.236 7.103 54.357.037.28-.199.596-.528 1.499-1.439-.624-2.885-1.152-4.242-1.851-21.918-11.297-43.836-22.596-65.729-33.942-5.994-3.105-6.456-2.989-9.436 4.24 25.994 13.474 52.07 26.989 78.146 40.505l.078 1.673c-28.792 14.673-57.586 29.348-86.652 44.163zm62.577-170.38c-.731-.608-1.724-1.883-3.028-2.452-21.086-9.2-42.213-18.303-63.321-27.455-2.357-1.022-4.281-1.416-5.536 1.613-1.248 3.013-.627 4.727 2.508 6.071 20.989 8.993 41.905 18.154 62.872 27.198 3.256 1.407 6.164-.558 6.505-4.975zm-66.383 52.877c-.328-1.448-.442-1.922-.541-2.401-4.379-21.342-8.769-42.684-13.122-64.031-.604-2.964-2.206-4.113-5.22-3.545-3.391.64-3.438 2.778-2.875 5.494 3.637 17.539 7.209 35.092 10.825 52.635.822 3.988 1.459 8.051 2.781 11.872.375 1.083 2.867 1.963 4.388 1.962 1.337-.002 2.673-1.364 3.764-1.986zm69.943-28.442c-1.258-1.504-2.146-3.328-3.583-4.034-1.077-.53-3.209-.088-4.278.713-15.77 11.804-31.413 23.776-47.159 35.612-2.737 2.057-2.046 3.881-.52 6.192 1.639 2.482 3.264 2.063 5.258.549 15.943-12.104 31.914-24.169 47.848-36.284.857-.65 1.46-1.632 2.434-2.748zm-97.956-41.773c-1.549-1.285-2.973-3.299-4.697-3.602-1.162-.205-3.243 1.729-4.069 3.184-9.254 16.315-18.312 32.742-27.508 49.091-1.497 2.66-1.913 4.525 1.237 6.435 3.37 2.042 4.554.247 5.962-2.287 9.031-16.25 18.129-32.461 27.184-48.697.627-1.123 1.08-2.342 1.891-4.124zm-25.165 69.736c-.874 1.151-2.155 2.351-2.819 3.828-1.09 2.424-.026 3.944 2.535 4.721 10.75 3.259 21.483 6.57 32.196 9.949 2.512.792 4.249.96 5.121-2.272.799-2.96.207-4.72-2.761-5.623-7.015-2.133-14.021-4.291-21.026-6.454-4.045-1.25-8.081-2.529-13.246-4.149zm-8.791-.945c-.107-5.266-5.063-10.005-10.221-9.773-5.2.233-9.772 5.28-9.517 10.502.242 4.949 5.209 9.416 10.238 9.208 5.196-.216 9.605-4.827 9.5-9.937zm62.238 29.015c5.55-.026 9.559-3.926 9.634-9.375.077-5.389-4.508-10.025-9.833-9.948-5.362.078-9.7 4.691-9.581 10.188.119 5.512 4.028 9.163 9.78 9.135zm89.204-69.981c-.034-5.316-4.307-9.76-9.437-9.815-5.169-.056-10.071 4.85-9.983 9.989.089 5.249 4.989 9.952 10.18 9.771 5.25-.183 9.274-4.512 9.24-9.945zm-111.343-33.918c5.621-.001 9.577-3.89 9.647-9.481.067-5.322-4.214-9.748-9.515-9.84-5.31-.092-10.191 4.743-10.044 9.95.151 5.335 4.421 9.373 9.912 9.371z"/></svg>